<svg id="Camada_1" data-name="Camada 1" xmlns="http://www.w3.org/2000/svg" viewBox="0 0 150 60"><defs><style>.cls-1,.cls-3{fill:#00829f;}.cls-1,.cls-2{fill-rule:evenodd;}.cls-2,.cls-4{fill:#f9af1c;}</style></defs><path class="cls-1" d="M31.18,28.68C15.25,29.23,2.75,35.32,2.61,43s12.13,14.21,28,15.34l.07-4C15.19,53.46,3.2,48.61,3.3,43S15.56,33,31.11,32.63Z"/><path class="cls-2" d="M31.15,1.61c-15.92.83-28.3,7.16-28.3,14.82h.69c0-5.62,12.08-10.24,27.61-10.87Z"/><path class="cls-2" d="M23.05,11.58C11.18,13.76,2.77,19.15,2.77,25.48h.69c0-4.61,8.11-8.55,19.59-10.16Z"/><path class="cls-2" d="M31.15,19.14C15.23,20,2.85,26.3,2.85,34h.69c0-5.62,12.08-10.25,27.61-10.87Z"/><polygon class="cls-3" points="52.49 17.75 42.19 17.75 42.19 11.27 50.58 11.27 50.58 9.9 42.19 9.9 42.19 2.91 52.01 2.91 52.01 1.52 40.78 1.52 40.78 19.14 52.49 19.14 52.49 17.75"/><path class="cls-3" d="M60,19.14a8.68,8.68,0,0,0,7.89-8.8,8.64,8.64,0,0,0-8.44-8.82H54.22V19.14H60Zm-4.42-1.39V2.91h3.87a7.25,7.25,0,0,1,7,7.43,7.41,7.41,0,0,1-6.57,7.41Z"/><path class="cls-3" d="M76.49,19.24c4.08,0,6.81-2.9,6.81-7.23V1.52H81.9v10.4c0,3.62-2.07,5.88-5.41,5.88s-5.36-2.26-5.36-5.88V1.52H69.75V12C69.75,16.4,72.4,19.24,76.49,19.24Z"/><path class="cls-3" d="M87.12,14.2H96l2.1,4.94h1.49L92.09,1.52h-1L83.53,19.14h1.52Zm.56-1.32,3.89-9.29,3.93,9.29Z"/><path class="cls-3" d="M101.94,13.26h4.51c.45,0,.9,0,1.32-.06l4.16,5.94h1.73l-4.43-6.27c2.44-.76,3.73-2.7,3.73-5.63,0-1.72-.57-5.72-5.91-5.72h-6.51V19.14h1.4Zm0-10.35H107c3.92,0,4.51,2.73,4.51,4.36,0,3.81-2.77,4.61-5.09,4.61h-4.49Z"/><path class="cls-3" d="M120.6,19.14a8.69,8.69,0,0,0,7.9-8.8,8.65,8.65,0,0,0-8.45-8.82h-5.27V19.14h5.82Zm-4.42-1.39V2.91h3.87a7.25,7.25,0,0,1,7,7.43,7.4,7.4,0,0,1-6.57,7.41Z"/><path class="cls-3" d="M138.28,1.44a8.9,8.9,0,1,0,8.78,8.9A8.88,8.88,0,0,0,138.28,1.44Zm0,16.36a7.47,7.47,0,1,1,7.36-7.46A7.43,7.43,0,0,1,138.28,17.8Z"/><path class="cls-3" d="M48.7,42.84a8.69,8.69,0,0,0,6.82-3.33l.16-.2-1.08-1-.18.23A7.22,7.22,0,0,1,48.7,41.4a7.47,7.47,0,0,1,0-14.94,7.24,7.24,0,0,1,5.72,2.85l.18.24,1.08-1-.16-.2A8.71,8.71,0,0,0,48.7,25a8.91,8.91,0,0,0,0,17.82Z"/><path class="cls-3" d="M63,25.12,55.39,42.74h1.52L59,37.8h8.91L70,42.74h1.49L64,25.12Zm4.41,11.36H59.53l3.9-9.29Z"/><polygon class="cls-3" points="88.67 42.74 88.67 25.12 87.68 25.12 80.55 37.39 73.41 25.12 72.4 25.12 72.4 42.74 73.8 42.74 73.8 28.49 80.55 40.13 87.27 28.5 87.27 42.74 88.67 42.74"/><path class="cls-3" d="M91.36,25.12V42.74h1.4V36.86h4.49c4.18,0,6.49-2.14,6.49-6,0-1.72-.58-5.72-5.92-5.72Zm1.4,1.39h5c3.94,0,4.53,2.73,4.53,4.36,0,3.81-2.77,4.61-5.09,4.61H92.76Z"/><path class="cls-3" d="M113.22,25a8.9,8.9,0,1,0,8.79,8.9A8.87,8.87,0,0,0,113.22,25Zm0,16.36a7.47,7.47,0,1,1,7.36-7.46A7.43,7.43,0,0,1,113.22,41.4Z"/><path class="cls-3" d="M128.77,26.42a11.65,11.65,0,0,1,5.11,1.19l.25.15.64-1.27-.22-.13A13.35,13.35,0,0,0,128.77,25C125.32,25,123,26.9,123,29.7c0,3.09,2.8,4.05,6.19,4.92,2.7.7,4.76,1.41,4.76,3.49s-1.77,3.41-4.62,3.41a9.87,9.87,0,0,1-5.7-1.43l-.26-.13-.57,1.25.23.12a10.74,10.74,0,0,0,6.3,1.58c3.73,0,6-1.85,6-4.83s-2.77-4-5.85-4.86c-2.89-.75-5.11-1.49-5.11-3.54S126.13,26.42,128.77,26.42Z"/><path class="cls-3" d="M42,53.8l-1.92,4.49h.24L40.9,57h2.44l.55,1.3h.24L42.21,53.8Zm-1,3,1.13-2.7,1.14,2.7Z"/><path class="cls-3" d="M46.83,53.8H45.52v4.49H47a2.25,2.25,0,0,0-.14-4.49ZM47,58.07H45.74V54h1.09a2,2,0,0,1,1.92,2A2,2,0,0,1,47,58.07Z"/><polygon class="cls-3" points="52.04 57.89 50.24 53.8 49.99 53.8 51.98 58.29 52.11 58.29 54.09 53.8 53.85 53.8 52.04 57.89"/><path class="cls-3" d="M57.31,53.78a2.27,2.27,0,1,0,2.24,2.27A2.26,2.26,0,0,0,57.31,53.78Zm0,4.3a2,2,0,1,1,2-2A2,2,0,0,1,57.31,58.08Z"/><path class="cls-3" d="M63,56.42h1.73v1.12a2.63,2.63,0,0,1-1.62.54,2,2,0,0,1,0-4.07,2.18,2.18,0,0,1,1.53.58l.15-.17a2.37,2.37,0,0,0-1.68-.64,2.27,2.27,0,0,0,0,4.53A2.84,2.84,0,0,0,65,57.66V56.2H63Z"/><path class="cls-3" d="M68.1,53.8l-1.93,4.49h.25L67,57H69.4l.55,1.3h.23L68.27,53.8Zm-1,3,1.13-2.7,1.14,2.7Z"/><path class="cls-3" d="M72.89,53.8H71.58v4.49H73a2.25,2.25,0,0,0-.14-4.49ZM73,58.07H71.8V54h1.09a2,2,0,0,1,1.92,2A2,2,0,0,1,73,58.07Z"/><path class="cls-3" d="M78.65,53.78a2.27,2.27,0,1,0,2.24,2.27A2.26,2.26,0,0,0,78.65,53.78Zm0,4.3a2,2,0,1,1,2-2A2,2,0,0,1,78.65,58.08Z"/><path class="cls-3" d="M83.89,55.92c-.76-.19-1.4-.4-1.4-1S83,54,83.71,54a3,3,0,0,1,1.38.33l.1-.21a3.39,3.39,0,0,0-1.48-.34c-.89,0-1.45.48-1.45,1.16s.73,1,1.58,1.22,1.3.39,1.3,1-.51,1-1.28,1a2.66,2.66,0,0,1-1.53-.38l-.1.2a2.82,2.82,0,0,0,1.63.4c.9,0,1.51-.44,1.51-1.19S84.69,56.13,83.89,55.92Z"/><path class="cls-3" d="M91.07,53.8l-1.93,4.49h.25l.54-1.3h2.44l.55,1.3h.24L91.24,53.8Zm-1,3,1.13-2.7,1.14,2.7Z"/><path class="cls-3" d="M95.92,55.92c-.76-.19-1.4-.4-1.4-1S95,54,95.74,54a3,3,0,0,1,1.38.33l.1-.21a3.39,3.39,0,0,0-1.48-.34c-.9,0-1.45.48-1.45,1.16s.73,1,1.58,1.22,1.3.39,1.3,1-.51,1-1.28,1a2.71,2.71,0,0,1-1.54-.38l-.09.2a2.82,2.82,0,0,0,1.63.4c.9,0,1.51-.44,1.51-1.19S96.72,56.13,95.92,55.92Z"/><path class="cls-3" d="M100.36,55.92c-.76-.19-1.39-.4-1.39-1s.46-.93,1.21-.93a3,3,0,0,1,1.38.33l.1-.21a3.33,3.33,0,0,0-1.48-.34c-.89,0-1.44.48-1.44,1.16s.72,1,1.57,1.22,1.31.39,1.31,1-.52,1-1.29,1a2.66,2.66,0,0,1-1.53-.38l-.09.2a2.79,2.79,0,0,0,1.62.4c.9,0,1.52-.44,1.52-1.19S101.16,56.13,100.36,55.92Z"/><path class="cls-3" d="M105.45,53.78a2.27,2.27,0,1,0,2.24,2.27A2.26,2.26,0,0,0,105.45,53.78Zm0,4.3a2,2,0,1,1,2-2A2,2,0,0,1,105.45,58.08Z"/><path class="cls-3" d="M111.3,54a2,2,0,0,1,1.56.77l.17-.16a2.22,2.22,0,0,0-1.73-.85,2.27,2.27,0,0,0,0,4.54,2.22,2.22,0,0,0,1.73-.84l-.17-.16a2,2,0,0,1-1.56.77,2,2,0,0,1,0-4.07Z"/><rect class="cls-3" x="114.61" y="53.8" width="0.22" height="4.49"/><path class="cls-3" d="M118.15,53.8l-1.93,4.49h.25L117,57h2.44l.55,1.3h.24l-1.92-4.49Zm-1.05,3,1.13-2.7,1.14,2.7Z"/><path class="cls-3" d="M122.94,53.8h-1.31v4.49h1.45a2.25,2.25,0,0,0-.14-4.49Zm.12,4.27h-1.21V54h1.09a2,2,0,0,1,1.92,2A2,2,0,0,1,123.06,58.07Z"/><path class="cls-3" d="M128.7,53.78a2.27,2.27,0,1,0,2.24,2.27A2.26,2.26,0,0,0,128.7,53.78Zm0,4.3a2,2,0,1,1,2-2A2,2,0,0,1,128.7,58.08Z"/><path class="cls-3" d="M133.94,55.92c-.76-.19-1.39-.4-1.39-1S133,54,133.76,54a3,3,0,0,1,1.38.33l.1-.21a3.39,3.39,0,0,0-1.48-.34c-.89,0-1.44.48-1.44,1.16s.72,1,1.57,1.22,1.3.39,1.3,1-.51,1-1.28,1a2.66,2.66,0,0,1-1.53-.38l-.1.2a2.82,2.82,0,0,0,1.63.4c.9,0,1.51-.44,1.51-1.19S134.74,56.13,133.94,55.92Z"/><rect class="cls-4" x="39.63" y="48.41" width="95.8" height="0.48"/></svg>