<svg id="Camada_1" data-name="Camada 1" xmlns="http://www.w3.org/2000/svg" viewBox="0 0 150 60"><defs><style>.cls-1,.cls-2{fill:#fff;}.cls-1{fill-rule:evenodd;}</style></defs><path class="cls-1" d="M31,28.76c-16,.54-28.47,6.65-28.61,14.33S14.57,57.32,30.5,58.44l.07-4C15,53.58,3,48.72,3.12,43.1S15.39,33.06,31,32.71Z"/><path class="cls-1" d="M31,1.64C15.07,2.48,2.67,8.81,2.67,16.49h.69C3.36,10.86,15.46,6.23,31,5.6Z"/><path class="cls-1" d="M22.9,11.63C11,13.81,2.59,19.22,2.59,25.55h.69c0-4.61,8.12-8.56,19.62-10.18Z"/><path class="cls-1" d="M31,19.21C15.07,20,2.67,26.38,2.67,34.05h.69c0-5.62,12.1-10.26,27.66-10.88Z"/><polygon class="cls-2" points="52.39 17.81 42.06 17.81 42.06 11.32 50.48 11.32 50.48 9.95 42.06 9.95 42.06 2.95 51.91 2.95 51.91 1.55 40.66 1.55 40.66 19.21 52.39 19.21 52.39 17.81"/><path class="cls-2" d="M60,19.21a8.72,8.72,0,0,0,7.91-8.82A8.67,8.67,0,0,0,59.4,1.55H54.12V19.21H60Zm-4.43-1.4V3H59.4a7.25,7.25,0,0,1,7,7.44,7.42,7.42,0,0,1-6.58,7.42Z"/><path class="cls-2" d="M76.43,19.3c4.08,0,6.82-2.91,6.82-7.24V1.55h-1.4V12c0,3.63-2.08,5.89-5.42,5.89S71.06,15.6,71.06,12V1.55H69.68V12.06C69.68,16.46,72.33,19.3,76.43,19.3Z"/><path class="cls-2" d="M87.08,14.26H96l2.1,5h1.5L92.05,1.55h-1L83.48,19.21H85Zm.55-1.33,3.9-9.3,3.94,9.3Z"/><path class="cls-2" d="M101.92,13.31h4.52c.45,0,.9,0,1.32-.06l4.16,6h1.73l-4.43-6.28c2.45-.77,3.74-2.71,3.74-5.65,0-1.72-.58-5.73-5.92-5.73h-6.52V19.21h1.4Zm0-10.36H107c3.93,0,4.52,2.73,4.52,4.36,0,3.82-2.77,4.63-5.09,4.63h-4.5Z"/><path class="cls-2" d="M120.61,19.21a8.72,8.72,0,0,0,7.91-8.82,8.67,8.67,0,0,0-8.46-8.84h-5.28V19.21h5.83Zm-4.42-1.4V3h3.87a7.25,7.25,0,0,1,7,7.44,7.42,7.42,0,0,1-6.58,7.42Z"/><path class="cls-2" d="M138.31,1.48a8.91,8.91,0,1,0,8.81,8.91A8.88,8.88,0,0,0,138.31,1.48Zm0,16.38a7.48,7.48,0,1,1,7.38-7.47A7.44,7.44,0,0,1,138.31,17.86Z"/><path class="cls-2" d="M48.59,42.94a8.71,8.71,0,0,0,6.83-3.33l.16-.2-1.08-1-.18.23a7.23,7.23,0,0,1-5.73,2.83,7.48,7.48,0,0,1,0-15,7.26,7.26,0,0,1,5.73,2.85l.18.24,1.08-1-.16-.2a8.71,8.71,0,0,0-6.83-3.36,8.93,8.93,0,0,0,0,17.85Z"/><path class="cls-2" d="M62.86,25.19,55.29,42.84h1.53l2.07-5h8.92l2.1,5h1.5L63.87,25.19Zm4.42,11.38H59.44l3.9-9.31Z"/><polygon class="cls-2" points="88.62 42.84 88.62 25.19 87.64 25.19 80.49 37.48 73.34 25.19 72.33 25.19 72.33 42.84 73.73 42.84 73.73 28.57 80.49 40.23 87.22 28.57 87.22 42.84 88.62 42.84"/><path class="cls-2" d="M91.32,25.19V42.84h1.4V37h4.5c4.19,0,6.5-2.14,6.5-6,0-1.72-.58-5.73-5.92-5.73Zm1.4,1.4h5c4,0,4.54,2.73,4.54,4.36,0,3.82-2.77,4.62-5.1,4.62H92.72Z"/><path class="cls-2" d="M113.21,25.12A8.91,8.91,0,1,0,122,34,8.87,8.87,0,0,0,113.21,25.12Zm0,16.37A7.48,7.48,0,1,1,120.59,34,7.44,7.44,0,0,1,113.21,41.49Z"/><path class="cls-2" d="M128.79,26.49a11.59,11.59,0,0,1,5.12,1.2l.25.15.64-1.27-.22-.13a13.22,13.22,0,0,0-5.79-1.35c-3.46,0-5.78,1.89-5.78,4.69,0,3.09,2.81,4.06,6.2,4.93,2.7.7,4.77,1.41,4.77,3.49s-1.77,3.42-4.63,3.42a9.92,9.92,0,0,1-5.71-1.43l-.25-.13-.58,1.25.23.12A10.77,10.77,0,0,0,129.35,43c3.74,0,6.06-1.85,6.06-4.83s-2.77-4.07-5.86-4.88c-2.9-.75-5.11-1.49-5.11-3.54S126.15,26.49,128.79,26.49Z"/><path class="cls-2" d="M41.92,53.91,40,58.41h.25l.54-1.3h2.44l.55,1.3H44l-1.92-4.5Zm-1.05,3L42,54.2l1.14,2.71Z"/><path class="cls-2" d="M46.72,53.91H45.41v4.5h1.45a2.26,2.26,0,0,0-.14-4.5Zm.12,4.28H45.63v-4h1.09a2,2,0,0,1,1.92,2A2,2,0,0,1,46.84,58.19Z"/><polygon class="cls-2" points="51.94 58.02 50.13 53.91 49.89 53.91 51.87 58.41 52.01 58.41 53.99 53.91 53.75 53.91 51.94 58.02"/><path class="cls-2" d="M57.22,53.9a2.27,2.27,0,1,0,2.24,2.27A2.26,2.26,0,0,0,57.22,53.9Zm0,4.3a2,2,0,1,1,2-2A2,2,0,0,1,57.22,58.2Z"/><path class="cls-2" d="M62.92,56.54h1.72v1.12a2.53,2.53,0,0,1-1.61.55,2,2,0,0,1,0-4.08,2.2,2.2,0,0,1,1.53.58l.15-.17A2.34,2.34,0,0,0,63,53.9a2.27,2.27,0,0,0,0,4.54,2.81,2.81,0,0,0,1.84-.66V56.33h-2Z"/><path class="cls-2" d="M68,53.91l-1.93,4.5h.25l.54-1.3h2.44l.55,1.3h.24l-1.92-4.5Zm-1,3L68.1,54.2l1.14,2.71Z"/><path class="cls-2" d="M72.82,53.91H71.51v4.5H73a2.26,2.26,0,0,0-.14-4.5Zm.12,4.28H71.73v-4h1.09a2,2,0,0,1,1.92,2A2,2,0,0,1,72.94,58.19Z"/><path class="cls-2" d="M78.59,53.9a2.27,2.27,0,1,0,2.24,2.27A2.26,2.26,0,0,0,78.59,53.9Zm0,4.3a2,2,0,1,1,2-2A2,2,0,0,1,78.59,58.2Z"/><path class="cls-2" d="M83.84,56.05c-.76-.2-1.4-.41-1.4-1s.46-.93,1.22-.93a3.05,3.05,0,0,1,1.38.33l.1-.21a3.39,3.39,0,0,0-1.48-.34c-.9,0-1.45.48-1.45,1.16s.73,1,1.58,1.23c.7.18,1.3.38,1.3,1s-.51,1-1.29,1a2.6,2.6,0,0,1-1.53-.39l-.09.2a2.75,2.75,0,0,0,1.62.41c.91,0,1.52-.44,1.52-1.2S84.64,56.26,83.84,56.05Z"/><path class="cls-2" d="M91,53.91l-1.93,4.5h.24l.55-1.3h2.44l.55,1.3h.24l-1.92-4.5Zm-1.06,3,1.14-2.71,1.14,2.71Z"/><path class="cls-2" d="M95.89,56.05c-.76-.2-1.4-.41-1.4-1s.46-.93,1.22-.93a3.05,3.05,0,0,1,1.38.33l.1-.21a3.39,3.39,0,0,0-1.48-.34c-.9,0-1.45.48-1.45,1.16s.73,1,1.58,1.23c.7.18,1.3.38,1.3,1s-.51,1-1.29,1a2.6,2.6,0,0,1-1.53-.39l-.09.2a2.75,2.75,0,0,0,1.62.41c.91,0,1.52-.44,1.52-1.2S96.69,56.26,95.89,56.05Z"/><path class="cls-2" d="M100.34,56.05c-.76-.2-1.4-.41-1.4-1s.46-.93,1.22-.93a3.05,3.05,0,0,1,1.38.33l.1-.21a3.39,3.39,0,0,0-1.48-.34c-.9,0-1.45.48-1.45,1.16s.73,1,1.57,1.23,1.31.38,1.31,1-.51,1-1.29,1a2.6,2.6,0,0,1-1.53-.39l-.09.2a2.75,2.75,0,0,0,1.62.41c.91,0,1.52-.44,1.52-1.2S101.14,56.26,100.34,56.05Z"/><path class="cls-2" d="M105.44,53.9a2.27,2.27,0,1,0,2.24,2.27A2.26,2.26,0,0,0,105.44,53.9Zm0,4.3a2,2,0,1,1,2-2A2,2,0,0,1,105.44,58.2Z"/><path class="cls-2" d="M111.29,54.13a2,2,0,0,1,1.56.77l.18-.16a2.25,2.25,0,1,0-1.74,3.7,2.21,2.21,0,0,0,1.74-.85l-.18-.16a2,2,0,0,1-1.56.77,2,2,0,0,1,0-4.07Z"/><rect class="cls-2" x="114.61" y="53.91" width="0.22" height="4.5"/><path class="cls-2" d="M118.15,53.91l-1.92,4.5h.24l.54-1.3h2.45l.55,1.3h.23l-1.92-4.5Zm-1.05,3,1.13-2.71,1.15,2.71Z"/><path class="cls-2" d="M123,53.91h-1.31v4.5h1.45a2.26,2.26,0,0,0-.14-4.5Zm.12,4.28h-1.21v-4H123a2,2,0,0,1,1.92,2A2,2,0,0,1,123.07,58.19Z"/><path class="cls-2" d="M128.72,53.9A2.27,2.27,0,1,0,131,56.17,2.26,2.26,0,0,0,128.72,53.9Zm0,4.3a2,2,0,1,1,2-2A2,2,0,0,1,128.72,58.2Z"/><path class="cls-2" d="M134,56.05c-.76-.2-1.4-.41-1.4-1s.46-.93,1.22-.93a3,3,0,0,1,1.38.33l.11-.21a3.4,3.4,0,0,0-1.49-.34c-.9,0-1.45.48-1.45,1.16s.73,1,1.58,1.23,1.31.38,1.31,1-.52,1-1.29,1a2.65,2.65,0,0,1-1.54-.39l-.09.2a2.76,2.76,0,0,0,1.63.41c.91,0,1.52-.44,1.52-1.2S134.77,56.26,134,56.05Z"/><rect class="cls-2" x="39.51" y="48.52" width="95.96" height="0.48"/></svg>